<?xml version="1.0" encoding="UTF-8"?>
<svg xmlns="http://www.w3.org/2000/svg" viewBox="0 0 92 41" role="img" aria-labelledby="logo7lmTitle logo7lmDesc">
  <title id="logo7lmTitle">7LM</title>
  <desc id="logo7lmDesc">Logo institucional da 7LM.</desc>
  <path fill="#010101" d="M36.92 35.72c-.25 0-.59-.05-.75-.27-.16-.22-.11-.55-.04-.8l6.13-22.42c.22-.76.03-1.25-.17-1.52-.2-.27-.61-.6-1.41-.6h-8.23c-.68 0-1.01-.33-1.01-1.01V6.26c0-.68.33-1.01 1.01-1.01h10.5c1.86 0 3.25.53 4.01 1.53.77 1.01.91 2.5.42 4.3l-6.47 23.72c-.18.62-.54.89-1.19.89h-2.78Z"/>
  <path fill="#010101" d="M56.55 35.66c-1.72 0-3.05-.45-3.93-1.33-.88-.88-1.33-2.21-1.33-3.93V6.29c0-.68.33-1.01 1.01-1.01h2.84c.68 0 1.01.33 1.01 1.01v22.7c0 1.13.7 1.83 1.83 1.83h9.93c.68 0 1.01.33 1.01 1.01v2.84c0 .68-.33 1.01-1.01 1.01H56.55Z"/>
  <path fill="#010101" d="M88.21 35.66c-.68 0-1.01-.33-1.01-1.01l-.35-12.51c.02-.23-.06-.43-.21-.5a.2.2 0 0 0-.15-.02c-.14.02-.26.15-.3.34l-3.98 11.31c-.17.46-.39.66-.54.66s-.35-.2-.49-.65v-.01L76.45 21.9l-.14-.28c-.09-.1-.22-.14-.34-.11-.15.05-.25.24-.2.43l-.26 12.71c0 .68-.33 1.01-1.01 1.01h-2.84c-.68 0-1.01-.33-1.01-1.01V6.29c0-.68.33-1.01 1.01-1.01h3.01c.31 0 .55.06.74.19.31.22.42.56.46.67.22.66 2.15 5.86 4.82 13.07.03.1.08.18.11.23.06.08.1.14.18.17.07.02.14 0 .15 0 .1-.03.16-.1.2-.16.07-.1.11-.2.12-.27 2.68-7.19 4.62-12.39 4.84-13.05.04-.11.14-.45.46-.67.19-.13.43-.19.74-.19h3.01c.68 0 1.01.33 1.01 1.01v28.37c0 .68-.33 1.01-1.01 1.01h-2.78Z"/>
  <path fill="#00b3de" d="m18.08 6.62-.13-.13c-1.61-1.61-4.23-1.61-5.84 0L1.21 17.39c-1.61 1.61-1.61 4.23 0 5.84l.13.13c1.61 1.61 4.23 1.61 5.84 0l10.9-10.9c1.61-1.61 1.61-4.23 0-5.84"/>
  <path fill="#010101" d="m29.07 17.61-4.45-4.45c-1.46-1.46-3.82-1.46-5.28 0l-5.87 5.87c-1.46 1.46-1.46 3.82 0 5.28l4.45 4.45c1.46 1.46 3.82 1.46 5.28 0l5.87-5.87c1.46-1.46 1.46-3.82 0-5.28"/>
  <path fill="#738086" d="m17.34 30.1-5.23-5.23c-1.25-1.25-3.28-1.25-4.53 0l-.1.1c-1.25 1.25-1.25 3.28 0 4.53l5.23 5.23c1.25 1.25 3.28 1.25 4.53 0l.1-.1c1.25-1.25 1.25-3.28 0-4.53"/>
</svg>
