<svg xmlns="http://www.w3.org/2000/svg" viewBox="0 0 977 423" fill="none">
  <g fill="#000" transform="translate(151.925171 -174.111620) scale(2.108799 2.082466)">
    <path d="M0 0 C1.48831242 0.00667405 2.97660807 0.01863442 4.46484375 0.03515625 C5.22345703 0.03966797 5.98207031 0.04417969 6.76367188 0.04882812 C8.64326246 0.06064945 10.52281274 0.07858547 12.40234375 0.09765625 C17.87894138 14.0444901 23.16678693 28.0587135 28.40234375 42.09765625 C32.50931377 32.46561949 36.23823844 22.70989675 39.90185547 12.90405273 C40.62373257 10.97424721 41.34882386 9.04567288 42.07421875 7.1171875 C42.49799805 5.98385986 42.92177734 4.85053223 43.35839844 3.68286133 C44.40234375 1.09765625 44.40234375 1.09765625 45.40234375 0.09765625 C50.68234375 0.09765625 55.96234375 0.09765625 61.40234375 0.09765625 C61.40234375 31.44765625 61.40234375 62.79765625 61.40234375 95.09765625 C56.45234375 95.09765625 51.50234375 95.09765625 46.40234375 95.09765625 C44.68491527 93.38022777 45.19164167 91.0810315 45.12109375 88.734375 C45.06501953 87.06084961 45.06501953 87.06084961 45.0078125 85.35351562 C44.95560547 83.58717773 44.95560547 83.58717773 44.90234375 81.78515625 C44.63885181 73.1923913 44.20566222 64.65826246 43.40234375 56.09765625 C42.88849121 57.58930298 42.88849121 57.58930298 42.36425781 59.11108398 C41.09082669 62.79381814 39.7962574 66.4688195 38.49511719 70.1418457 C37.93461545 71.73356022 37.37989257 73.32732183 36.83105469 74.9230957 C36.04175846 77.21476174 35.23206622 79.49829565 34.41796875 81.78125 C34.17612854 82.49792343 33.93428833 83.21459686 33.68511963 83.95298767 C32.95800781 85.95483398 32.95800781 85.95483398 31.40234375 89.09765625 C29.21386719 90.05493164 29.21386719 90.05493164 27.40234375 90.09765625 C25.56843278 85.31077978 23.73536421 80.52358191 21.90307617 75.73608398 C21.27961001 74.10741452 20.65591359 72.47883318 20.03198242 70.8503418 C19.13529911 68.50983429 18.23944386 66.16901131 17.34375 63.828125 C17.06455215 63.09990036 16.78535431 62.37167572 16.49769592 61.62138367 C15.41632322 58.79329888 14.35995272 55.97048315 13.40234375 53.09765625 C13.3772876 54.29890137 13.35223145 55.50014648 13.32641602 56.73779297 C13.23241231 61.18452054 13.13217458 65.63108932 13.0300293 70.07763672 C12.98665374 72.00403129 12.94498061 73.93046496 12.9050293 75.85693359 C12.84739013 78.62219033 12.78367759 81.38724975 12.71875 84.15234375 C12.69368126 85.44928665 12.69368126 85.44928665 12.66810608 86.77243042 C12.51621546 92.86991284 12.51621546 92.86991284 11.40234375 95.09765625 C8.92310574 95.1245072 6.44415535 95.14442172 3.96484375 95.16015625 C3.25779297 95.16853516 2.55074219 95.17691406 1.82226562 95.18554688 C0.01540816 95.19419213 -1.79153228 95.14985636 -3.59765625 95.09765625 C-5.46220971 93.23310279 -4.7242431 90.56359277 -4.73318481 88.08244324 C-4.73116058 87.21799088 -4.72913635 86.35353851 -4.72705078 85.46289062 C-4.7288031 84.55726883 -4.73055542 83.65164703 -4.73236084 82.71858215 C-4.73678079 79.70950432 -4.73384086 76.70048473 -4.73046875 73.69140625 C-4.73114175 71.610148 -4.73211174 69.52888982 -4.73336792 67.44763184 C-4.73484509 63.07950087 -4.73268973 58.71139032 -4.72802734 54.34326172 C-4.72233005 48.73051072 -4.72560895 43.11780753 -4.73159981 37.50505829 C-4.73520491 33.20554236 -4.73406707 28.90603787 -4.73147202 24.60652161 C-4.73080261 22.53636164 -4.73163165 20.46620065 -4.73395157 18.39604187 C-4.73647727 15.50814039 -4.73263867 12.62031747 -4.72705078 9.73242188 C-4.72907501 8.86796951 -4.73109924 8.00351715 -4.73318481 7.11286926 C-4.7080116 0.12779619 -4.7080116 0.12779619 0 0 Z" transform="translate(242.59765625,111.90234375)" />
    <path d="M0 0 C5.28 0 10.56 0 16 0 C17.46390675 2.92781349 17.17005218 5.88498528 17.18945312 9.09594727 C17.19774643 9.82615082 17.20603973 10.55635437 17.21458435 11.3086853 C17.23199587 12.8959644 17.24715967 14.48326936 17.26036072 16.07058907 C17.28135425 18.57886159 17.30837823 21.08700369 17.33703613 23.59519958 C17.40693879 29.82365466 17.46634414 36.05220217 17.52606201 42.28076172 C17.57690861 47.5436805 17.63170276 52.80652866 17.69187927 58.06934929 C17.71854369 60.54723414 17.73930215 63.02512526 17.7598877 65.50306702 C17.77648318 67.01319699 17.79335436 68.52332397 17.81054688 70.03344727 C17.8168235 71.0752993 17.8168235 71.0752993 17.82322693 72.13819885 C17.59919249 75.34828945 17.59919249 75.34828945 19 78 C21.66426685 78.16003488 24.30560428 78.25942889 26.97265625 78.31640625 C27.77029892 78.33718735 28.56794159 78.35796844 29.38975525 78.37937927 C31.94724611 78.44496158 34.5048428 78.50379967 37.0625 78.5625 C38.79232882 78.60567699 40.52214679 78.64929101 42.25195312 78.69335938 C46.5011926 78.80065172 50.7505389 78.90189426 55 79 C57.31921491 84.56910312 57.96640957 89.10077128 56 95 C49.41647559 95.10161289 42.83315423 95.1715547 36.24902344 95.21972656 C34.01033979 95.23981316 31.77170842 95.2670878 29.53320312 95.30175781 C26.31106651 95.35040464 23.08962499 95.37299874 19.8671875 95.390625 C18.87008759 95.41127014 17.87298767 95.43191528 16.84567261 95.45318604 C11.09245697 95.45503414 7.39310783 95.11688166 3 91 C-0.00426108 86.19337287 -0.41775361 82.04900081 -0.34057617 76.51611328 C-0.34101425 75.68618362 -0.34145233 74.85625397 -0.34190369 74.00117493 C-0.33982343 71.27397658 -0.31652872 68.54740268 -0.29296875 65.8203125 C-0.28737008 63.92317033 -0.28310126 62.0260238 -0.28010559 60.12887573 C-0.2686782 55.14754153 -0.23922913 50.16647178 -0.20599365 45.1852417 C-0.17524735 40.09748919 -0.16159051 35.00969374 -0.14648438 29.921875 C-0.11435737 19.94778207 -0.06160662 9.97395445 0 0 Z" transform="translate(176,112)" />
    <path d="M0 0 C3.45127398 2.7158698 6.42482894 5.81214496 9.4375 9 C10.25154297 9.83273438 11.06558594 10.66546875 11.90429688 11.5234375 C19.14236821 18.98486884 19.14236821 18.98486884 19.3125 24.25 C19.36857422 25.37148437 19.36857422 25.37148437 19.42578125 26.515625 C18.18068355 33.78059876 11.14513161 39.22181375 6.1875 44.1875 C5.40568359 44.99380859 4.62386719 45.80011719 3.81835938 46.63085938 C-5.47447547 55.97027484 -5.47447547 55.97027484 -12.11865234 56.01391602 C-19.23476524 55.06002791 -23.20952348 50.67600597 -27.9375 45.625 C-28.69095703 44.85671875 -29.44441406 44.0884375 -30.22070312 43.296875 C-37.65260096 35.60549282 -37.65260096 35.60549282 -38.5 29.25 C-38.22198367 20.4025393 -28.95149461 13.63772533 -23 8 C-22.30390625 7.33355469 -21.6078125 6.66710937 -20.890625 5.98046875 C-14.51169474 0.10839147 -8.75541293 -4.04731352 0 0 Z" transform="translate(92,134)" />
    <path d="M0 0 C6.31709229 -0.09897222 12.63373197 -0.17151837 18.95141602 -0.21972656 C21.0999335 -0.23982586 23.2483964 -0.26710993 25.39672852 -0.30175781 C28.48727905 -0.35034913 31.57710555 -0.37298579 34.66796875 -0.390625 C35.62648239 -0.41127014 36.58499603 -0.43191528 37.57255554 -0.45318604 C41.80716596 -0.45460669 44.31176213 -0.40427647 48.02075195 1.77441406 C51.4858645 5.67079571 52.46545587 8.83380284 52.33441162 14.10803223 C51.56361409 20.7738341 49.50733521 27.22801134 47.6953125 33.671875 C47.25077778 35.28345798 46.80717963 36.89529956 46.36447144 38.50738525 C45.43822013 41.87130803 44.50462762 45.23306749 43.56494141 48.59326172 C42.36245929 52.89333369 41.17251728 57.19674165 39.98729134 61.50159836 C38.85238943 65.6219914 37.71173314 69.74078382 36.5703125 73.859375 C36.3541843 74.6407357 36.13805611 75.42209641 35.91537857 76.2271347 C35.30105061 78.44365247 34.68269823 80.6590052 34.06298828 82.87402344 C33.71213165 84.13261169 33.36127502 85.39119995 32.99978638 86.68792725 C32 90 32 90 30 95 C24.72 95 19.44 95 14 95 C14.57974563 87.7825703 16.51201723 80.99686136 18.46982193 74.05348969 C19.08046286 71.88584335 19.68321697 69.71613945 20.28390503 67.54571533 C21.9914914 61.38088633 23.71246668 55.21983027 25.43994141 49.06054688 C26.49969148 45.27995218 27.54996518 41.49682738 28.59453964 37.71201324 C28.99353292 36.27407278 29.39625002 34.83716015 29.80276871 33.40132904 C30.36972264 31.39847799 30.92465007 29.39264769 31.47705078 27.38574219 C31.79602325 26.24627136 32.11499573 25.10680054 32.44363403 23.93280029 C32.97704913 21.1209821 32.98318857 19.64452166 32 17 C30.65252686 16.96241577 30.65252686 16.96241577 29.27783203 16.92407227 C25.94925131 16.82901307 22.62085006 16.72977579 19.29248047 16.62768555 C17.8511238 16.58433769 16.40971582 16.54266248 14.96826172 16.50268555 C12.89795459 16.44497912 10.82790568 16.38128629 8.7578125 16.31640625 C7.5114502 16.27974854 6.26508789 16.24309082 4.98095703 16.20532227 C2 16 2 16 0 15 C0 10.05 0 5.1 0 0 Z" transform="translate(114,112)" />
    <path d="M0 0 C4.00960519 1.90570589 6.29691582 4.96082689 8 9 C8.74754925 12.82400194 8.85584346 16.49029374 6.89794922 19.9440155 C3.0776928 24.81767714 -0.99422316 29.30114536 -5.375 33.67578125 C-6.06255371 34.36762009 -6.75010742 35.05945892 -7.45849609 35.77226257 C-8.9014356 37.22090382 -10.34694673 38.66698777 -11.79492188 40.1105957 C-14.0028112 42.31530715 -16.19698527 44.53307379 -18.390625 46.75195312 C-19.80127259 48.1648724 -21.21270421 49.57700944 -22.625 50.98828125 C-23.2751709 51.6476619 -23.9253418 52.30704254 -24.59521484 52.98640442 C-29.06135681 57.40773863 -32.97180803 60.66965179 -39.4375 61.375 C-43.553907 60.941694 -46.38413553 60.0165398 -50 58 C-52.65539745 54.40960345 -53.49689548 51.63039773 -53.625 47.1875 C-53.67914063 46.21167969 -53.73328125 45.23585937 -53.7890625 44.23046875 C-51.94825217 36.69408191 -43.76740882 30.61803236 -38.38671875 25.25390625 C-37.34328056 24.20903297 -37.34328056 24.20903297 -36.27876282 23.14305115 C-34.82370654 21.68732001 -33.36740937 20.2328282 -31.90991211 18.77954102 C-29.67249105 16.54752732 -27.44052323 14.31015865 -25.20898438 12.07226562 C-23.78938346 10.65332466 -22.36947283 9.23469346 -20.94921875 7.81640625 C-20.28153976 7.14670303 -19.61386078 6.47699982 -18.9259491 5.78700256 C-18.30802994 5.17223557 -17.69011078 4.55746857 -17.0534668 3.92407227 C-16.51054489 3.38194595 -15.96762299 2.83981964 -15.4082489 2.28126526 C-11.3005577 -1.45603006 -5.18037529 -0.60866028 0 0 Z" transform="translate(69,112)" />
    <path d="M0 0 C2.70654297 2.00952148 2.70654297 2.00952148 5.2421875 4.62109375 C6.62277344 6.02391602 6.62277344 6.02391602 8.03125 7.45507812 C8.97928434 8.44910653 9.92719971 9.44324843 10.875 10.4375 C11.84500807 11.42905301 12.81635123 12.41930181 13.7890625 13.40820312 C21.87557881 21.70601965 21.87557881 21.70601965 22.3125 26.25 C21.94713599 30.63436813 20.73973233 32.61562477 18 36 C14.18865547 37.90567227 10.13426191 37.70435573 6 37 C2.78889075 35.20760569 0.51662934 32.6540562 -2 30 C-3.11361831 28.90002062 -4.23112562 27.8039707 -5.3515625 26.7109375 C-16.13861559 16.13282746 -16.13861559 16.13282746 -16.3125 10.6875 C-16.26904736 7.30905697 -16.04921727 6.08567451 -14.3125 3.0625 C-9.55583577 -1.17993026 -6.16333333 -1.39425372 0 0 Z" transform="translate(52,170)" />
  </g>
  <text
    x="488.5"
    y="360"
    fill="#000"
    font-family="Arial, sans-serif"
    font-size="94"
    font-weight="400"
    letter-spacing="-0.03em"
    lengthAdjust="spacingAndGlyphs"
    text-anchor="middle"
    textLength="620"
  >Máquina de Vendas</text>
</svg>
